/* XPM */
static char * close_active_xpm[] = {
"32 25 33 1",
" 	c None",
".	c #14161b",
"+	c #535660",
"@	c #A2A3A6",
"#	c #5C5E64",
"$	c #14161b",
"%	c #929294",
"&	c #B7B7B7",
"*	c #5D5F64",
"=	c #14161b",
"-	c #14161b",
";	c #919193",
">	c #B3B3B3",
",	c #616368",
"'	c #14161b",
")	c #949495",
"!	c #BDBDBE",
"~	c #14161b",
"{	c #606266",
"]	c #DBDBDB",
"^	c #65676B",
"/	c #B5B5B6",
"(	c #8D8E8F",
"_	c #636469",
":	c #B5B5B5",
"<	c #8F8F91",
"[	c #14161b",
"}	c #555862",
"|	c #B9B9BA",
"1	c #898A8C",
"2	c #14161b",
"3	c #65676F",
"4	c #14161b",
"                                ",
"                                ",
"                                ",
"                                ",
"................................",
"................................",
"................................",
"................................",
"................................",
"................................",
"................................",
"................................",
"................................",
"................................",
"................................",
"................................",
"................................",
"................................",
"................................",
"................................",
"................................",
"................................",
"................................",
"................................",
"................................"};
