/* XPM */
static char * title_2_active_xpm[] = {
  "1 22 2 1",
  " 	c None",
  ".	c #14161b",
  " ",
  " ",
  " ",
  " ",
  ".",
  ".",
  ".",
  ".",
  ".",
  ".",
  ".",
  ".",
  ".",
  ".",
  ".",
  ".",
  ".",
  ".",
  ".",
  ".",
  ".",
  ".",
  ".",
  ".",
  ".",
  ".",
  ".",
  ".",
  ".",
  ".",
  ".",
  "."};
